<?xml version="1.0" encoding="utf-8"?>
<svg xmlns="http://www.w3.org/2000/svg" xmlns:xlink="http://www.w3.org/1999/xlink" width="600" height="400" viewBox="0 0 2400 1600">
<defs>
  <clipPath id="clip2200">
    <rect x="0" y="0" width="2400" height="1600"/>
  </clipPath>
</defs>
<polygon clip-path="url(#clip2200)" points="
0,1600 2400,1600 2400,0 0,0 
  " fill="#ffffff" fill-rule="evenodd" fill-opacity="1"/>
<defs>
  <clipPath id="clip2201">
    <rect x="480" y="0" width="1681" height="1600"/>
  </clipPath>
</defs>
<polygon clip-path="url(#clip2200)" points="
153.898,1487.47 2352.76,1487.47 2352.76,121.675 153.898,121.675 
  " fill="#ffffff" fill-rule="evenodd" fill-opacity="1"/>
<defs>
  <clipPath id="clip2202">
    <rect x="153" y="121" width="2200" height="1367"/>
  </clipPath>
</defs>
<polyline clip-path="url(#clip2202)" style="stroke:#000000; stroke-width:2; stroke-opacity:0.1; fill:none" points="
  446.618,1487.47 446.618,121.675 
  "/>
<polyline clip-path="url(#clip2202)" style="stroke:#000000; stroke-width:2; stroke-opacity:0.1; fill:none" points="
  907.595,1487.47 907.595,121.675 
  "/>
<polyline clip-path="url(#clip2202)" style="stroke:#000000; stroke-width:2; stroke-opacity:0.1; fill:none" points="
  1368.57,1487.47 1368.57,121.675 
  "/>
<polyline clip-path="url(#clip2202)" style="stroke:#000000; stroke-width:2; stroke-opacity:0.1; fill:none" points="
  1829.55,1487.47 1829.55,121.675 
  "/>
<polyline clip-path="url(#clip2202)" style="stroke:#000000; stroke-width:2; stroke-opacity:0.1; fill:none" points="
  2290.52,1487.47 2290.52,121.675 
  "/>
<polyline clip-path="url(#clip2202)" style="stroke:#000000; stroke-width:2; stroke-opacity:0.1; fill:none" points="
  153.898,1452.67 2352.76,1452.67 
  "/>
<polyline clip-path="url(#clip2202)" style="stroke:#000000; stroke-width:2; stroke-opacity:0.1; fill:none" points="
  153.898,1181.13 2352.76,1181.13 
  "/>
<polyline clip-path="url(#clip2202)" style="stroke:#000000; stroke-width:2; stroke-opacity:0.1; fill:none" points="
  153.898,909.59 2352.76,909.59 
  "/>
<polyline clip-path="url(#clip2202)" style="stroke:#000000; stroke-width:2; stroke-opacity:0.1; fill:none" points="
  153.898,638.05 2352.76,638.05 
  "/>
<polyline clip-path="url(#clip2202)" style="stroke:#000000; stroke-width:2; stroke-opacity:0.1; fill:none" points="
  153.898,366.51 2352.76,366.51 
  "/>
<polyline clip-path="url(#clip2200)" style="stroke:#000000; stroke-width:4; stroke-opacity:1; fill:none" points="
  153.898,1487.47 2352.76,1487.47 
  "/>
<polyline clip-path="url(#clip2200)" style="stroke:#000000; stroke-width:4; stroke-opacity:1; fill:none" points="
  153.898,1487.47 153.898,121.675 
  "/>
<polyline clip-path="url(#clip2200)" style="stroke:#000000; stroke-width:4; stroke-opacity:1; fill:none" points="
  446.618,1487.47 446.618,1466.99 
  "/>
<polyline clip-path="url(#clip2200)" style="stroke:#000000; stroke-width:4; stroke-opacity:1; fill:none" points="
  907.595,1487.47 907.595,1466.99 
  "/>
<polyline clip-path="url(#clip2200)" style="stroke:#000000; stroke-width:4; stroke-opacity:1; fill:none" points="
  1368.57,1487.47 1368.57,1466.99 
  "/>
<polyline clip-path="url(#clip2200)" style="stroke:#000000; stroke-width:4; stroke-opacity:1; fill:none" points="
  1829.55,1487.47 1829.55,1466.99 
  "/>
<polyline clip-path="url(#clip2200)" style="stroke:#000000; stroke-width:4; stroke-opacity:1; fill:none" points="
  2290.52,1487.47 2290.52,1466.99 
  "/>
<polyline clip-path="url(#clip2200)" style="stroke:#000000; stroke-width:4; stroke-opacity:1; fill:none" points="
  153.898,1452.67 186.881,1452.67 
  "/>
<polyline clip-path="url(#clip2200)" style="stroke:#000000; stroke-width:4; stroke-opacity:1; fill:none" points="
  153.898,1181.13 186.881,1181.13 
  "/>
<polyline clip-path="url(#clip2200)" style="stroke:#000000; stroke-width:4; stroke-opacity:1; fill:none" points="
  153.898,909.59 186.881,909.59 
  "/>
<polyline clip-path="url(#clip2200)" style="stroke:#000000; stroke-width:4; stroke-opacity:1; fill:none" points="
  153.898,638.05 186.881,638.05 
  "/>
<polyline clip-path="url(#clip2200)" style="stroke:#000000; stroke-width:4; stroke-opacity:1; fill:none" points="
  153.898,366.51 186.881,366.51 
  "/>
<g clip-path="url(#clip2200)">
<text style="fill:#000000; fill-opacity:1; font-family:Arial,Helvetica Neue,Helvetica,sans-serif; font-size:48px; text-anchor:middle;" transform="rotate(0, 446.618, 1541.47)" x="446.618" y="1541.47">2</text>
</g>
<g clip-path="url(#clip2200)">
<text style="fill:#000000; fill-opacity:1; font-family:Arial,Helvetica Neue,Helvetica,sans-serif; font-size:48px; text-anchor:middle;" transform="rotate(0, 907.595, 1541.47)" x="907.595" y="1541.47">4</text>
</g>
<g clip-path="url(#clip2200)">
<text style="fill:#000000; fill-opacity:1; font-family:Arial,Helvetica Neue,Helvetica,sans-serif; font-size:48px; text-anchor:middle;" transform="rotate(0, 1368.57, 1541.47)" x="1368.57" y="1541.47">6</text>
</g>
<g clip-path="url(#clip2200)">
<text style="fill:#000000; fill-opacity:1; font-family:Arial,Helvetica Neue,Helvetica,sans-serif; font-size:48px; text-anchor:middle;" transform="rotate(0, 1829.55, 1541.47)" x="1829.55" y="1541.47">8</text>
</g>
<g clip-path="url(#clip2200)">
<text style="fill:#000000; fill-opacity:1; font-family:Arial,Helvetica Neue,Helvetica,sans-serif; font-size:48px; text-anchor:middle;" transform="rotate(0, 2290.52, 1541.47)" x="2290.52" y="1541.47">10</text>
</g>
<g clip-path="url(#clip2200)">
<text style="fill:#000000; fill-opacity:1; font-family:Arial,Helvetica Neue,Helvetica,sans-serif; font-size:48px; text-anchor:end;" transform="rotate(0, 129.898, 1470.17)" x="129.898" y="1470.17">0.0</text>
</g>
<g clip-path="url(#clip2200)">
<text style="fill:#000000; fill-opacity:1; font-family:Arial,Helvetica Neue,Helvetica,sans-serif; font-size:48px; text-anchor:end;" transform="rotate(0, 129.898, 1198.63)" x="129.898" y="1198.63">0.2</text>
</g>
<g clip-path="url(#clip2200)">
<text style="fill:#000000; fill-opacity:1; font-family:Arial,Helvetica Neue,Helvetica,sans-serif; font-size:48px; text-anchor:end;" transform="rotate(0, 129.898, 927.09)" x="129.898" y="927.09">0.4</text>
</g>
<g clip-path="url(#clip2200)">
<text style="fill:#000000; fill-opacity:1; font-family:Arial,Helvetica Neue,Helvetica,sans-serif; font-size:48px; text-anchor:end;" transform="rotate(0, 129.898, 655.55)" x="129.898" y="655.55">0.6</text>
</g>
<g clip-path="url(#clip2200)">
<text style="fill:#000000; fill-opacity:1; font-family:Arial,Helvetica Neue,Helvetica,sans-serif; font-size:48px; text-anchor:end;" transform="rotate(0, 129.898, 384.01)" x="129.898" y="384.01">0.8</text>
</g>
<g clip-path="url(#clip2200)">
<text style="fill:#000000; fill-opacity:1; font-family:Arial,Helvetica Neue,Helvetica,sans-serif; font-size:84px; text-anchor:middle;" transform="rotate(0, 1253.33, 73.2)" x="1253.33" y="73.2">Two Lines</text>
</g>
<polyline clip-path="url(#clip2202)" style="stroke:#009af9; stroke-width:12; stroke-opacity:1; fill:none" points="
  216.13,421.739 446.618,887.508 677.106,716.185 907.595,481.4 1138.08,160.33 1368.57,854.867 1599.06,1072.17 1829.55,1098.87 2060.04,236.732 2290.52,706.695 
  
  "/>
<polyline clip-path="url(#clip2202)" style="stroke:#e26f46; stroke-width:12; stroke-opacity:1; fill:none" points="
  216.13,431.599 446.618,226.095 677.106,993.478 907.595,1255.15 1138.08,1448.82 1368.57,733.707 1599.06,271.864 1829.55,1294.63 2060.04,1283.86 2290.52,1211.78 
  
  "/>
<polygon clip-path="url(#clip2200)" points="
1909.64,386.635 2280.76,386.635 2280.76,205.195 1909.64,205.195 
  " fill="#ffffff" fill-rule="evenodd" fill-opacity="1"/>
<polyline clip-path="url(#clip2200)" style="stroke:#000000; stroke-width:4; stroke-opacity:1; fill:none" points="
  1909.64,386.635 2280.76,386.635 2280.76,205.195 1909.64,205.195 1909.64,386.635 
  "/>
<polyline clip-path="url(#clip2200)" style="stroke:#009af9; stroke-width:12; stroke-opacity:1; fill:none" points="
  1933.64,265.675 2077.64,265.675 
  "/>
<g clip-path="url(#clip2200)">
<text style="fill:#000000; fill-opacity:1; font-family:Arial,Helvetica Neue,Helvetica,sans-serif; font-size:48px; text-anchor:start;" transform="rotate(0, 2101.64, 283.175)" x="2101.64" y="283.175">Line 1</text>
</g>
<polyline clip-path="url(#clip2200)" style="stroke:#e26f46; stroke-width:12; stroke-opacity:1; fill:none" points="
  1933.64,326.155 2077.64,326.155 
  "/>
<g clip-path="url(#clip2200)">
<text style="fill:#000000; fill-opacity:1; font-family:Arial,Helvetica Neue,Helvetica,sans-serif; font-size:48px; text-anchor:start;" transform="rotate(0, 2101.64, 343.655)" x="2101.64" y="343.655">Line 2</text>
</g>
</svg>
