<?xml version="1.0" encoding="utf-8"?>
<svg xmlns="http://www.w3.org/2000/svg" xmlns:xlink="http://www.w3.org/1999/xlink" width="600" height="400" viewBox="0 0 2400 1600">
<defs>
  <clipPath id="clip3200">
    <rect x="0" y="0" width="2000" height="2000"/>
  </clipPath>
</defs>
<defs>
  <clipPath id="clip3201">
    <rect x="0" y="0" width="2400" height="1600"/>
  </clipPath>
</defs>
<polygon clip-path="url(#clip3201)" points="
0,1600 2400,1600 2400,0 0,0 
  " fill="#ffffff" fill-rule="evenodd" fill-opacity="1"/>
<defs>
  <clipPath id="clip3202">
    <rect x="480" y="0" width="1681" height="1600"/>
  </clipPath>
</defs>
<polygon clip-path="url(#clip3201)" points="
161.394,1503.47 2321.26,1503.47 2321.26,125.984 161.394,125.984 
  " fill="#ffffff" fill-rule="evenodd" fill-opacity="1"/>
<defs>
  <clipPath id="clip3203">
    <rect x="161" y="125" width="2161" height="1378"/>
  </clipPath>
</defs>
<polyline clip-path="url(#clip3203)" style="stroke:#000000; stroke-width:2; stroke-opacity:0.1; fill:none" points="
  448.923,1503.47 448.923,125.984 
  "/>
<polyline clip-path="url(#clip3203)" style="stroke:#000000; stroke-width:2; stroke-opacity:0.1; fill:none" points="
  901.725,1503.47 901.725,125.984 
  "/>
<polyline clip-path="url(#clip3203)" style="stroke:#000000; stroke-width:2; stroke-opacity:0.1; fill:none" points="
  1354.53,1503.47 1354.53,125.984 
  "/>
<polyline clip-path="url(#clip3203)" style="stroke:#000000; stroke-width:2; stroke-opacity:0.1; fill:none" points="
  1807.33,1503.47 1807.33,125.984 
  "/>
<polyline clip-path="url(#clip3203)" style="stroke:#000000; stroke-width:2; stroke-opacity:0.1; fill:none" points="
  2260.13,1503.47 2260.13,125.984 
  "/>
<polyline clip-path="url(#clip3203)" style="stroke:#000000; stroke-width:2; stroke-opacity:0.1; fill:none" points="
  161.394,1371.27 2321.26,1371.27 
  "/>
<polyline clip-path="url(#clip3203)" style="stroke:#000000; stroke-width:2; stroke-opacity:0.1; fill:none" points="
  161.394,1172.48 2321.26,1172.48 
  "/>
<polyline clip-path="url(#clip3203)" style="stroke:#000000; stroke-width:2; stroke-opacity:0.1; fill:none" points="
  161.394,973.701 2321.26,973.701 
  "/>
<polyline clip-path="url(#clip3203)" style="stroke:#000000; stroke-width:2; stroke-opacity:0.1; fill:none" points="
  161.394,774.917 2321.26,774.917 
  "/>
<polyline clip-path="url(#clip3203)" style="stroke:#000000; stroke-width:2; stroke-opacity:0.1; fill:none" points="
  161.394,576.133 2321.26,576.133 
  "/>
<polyline clip-path="url(#clip3203)" style="stroke:#000000; stroke-width:2; stroke-opacity:0.1; fill:none" points="
  161.394,377.349 2321.26,377.349 
  "/>
<polyline clip-path="url(#clip3203)" style="stroke:#000000; stroke-width:2; stroke-opacity:0.1; fill:none" points="
  161.394,178.565 2321.26,178.565 
  "/>
<polyline clip-path="url(#clip3201)" style="stroke:#000000; stroke-width:4; stroke-opacity:1; fill:none" points="
  161.394,1503.47 2321.26,1503.47 
  "/>
<polyline clip-path="url(#clip3201)" style="stroke:#000000; stroke-width:4; stroke-opacity:1; fill:none" points="
  161.394,1503.47 161.394,125.984 
  "/>
<polyline clip-path="url(#clip3201)" style="stroke:#000000; stroke-width:4; stroke-opacity:1; fill:none" points="
  448.923,1503.47 448.923,1482.81 
  "/>
<polyline clip-path="url(#clip3201)" style="stroke:#000000; stroke-width:4; stroke-opacity:1; fill:none" points="
  901.725,1503.47 901.725,1482.81 
  "/>
<polyline clip-path="url(#clip3201)" style="stroke:#000000; stroke-width:4; stroke-opacity:1; fill:none" points="
  1354.53,1503.47 1354.53,1482.81 
  "/>
<polyline clip-path="url(#clip3201)" style="stroke:#000000; stroke-width:4; stroke-opacity:1; fill:none" points="
  1807.33,1503.47 1807.33,1482.81 
  "/>
<polyline clip-path="url(#clip3201)" style="stroke:#000000; stroke-width:4; stroke-opacity:1; fill:none" points="
  2260.13,1503.47 2260.13,1482.81 
  "/>
<polyline clip-path="url(#clip3201)" style="stroke:#000000; stroke-width:4; stroke-opacity:1; fill:none" points="
  161.394,1371.27 193.792,1371.27 
  "/>
<polyline clip-path="url(#clip3201)" style="stroke:#000000; stroke-width:4; stroke-opacity:1; fill:none" points="
  161.394,1172.48 193.792,1172.48 
  "/>
<polyline clip-path="url(#clip3201)" style="stroke:#000000; stroke-width:4; stroke-opacity:1; fill:none" points="
  161.394,973.701 193.792,973.701 
  "/>
<polyline clip-path="url(#clip3201)" style="stroke:#000000; stroke-width:4; stroke-opacity:1; fill:none" points="
  161.394,774.917 193.792,774.917 
  "/>
<polyline clip-path="url(#clip3201)" style="stroke:#000000; stroke-width:4; stroke-opacity:1; fill:none" points="
  161.394,576.133 193.792,576.133 
  "/>
<polyline clip-path="url(#clip3201)" style="stroke:#000000; stroke-width:4; stroke-opacity:1; fill:none" points="
  161.394,377.349 193.792,377.349 
  "/>
<polyline clip-path="url(#clip3201)" style="stroke:#000000; stroke-width:4; stroke-opacity:1; fill:none" points="
  161.394,178.565 193.792,178.565 
  "/>
<g clip-path="url(#clip3201)">
<text style="fill:#000000; fill-opacity:1; font-family:Arial,Helvetica Neue,Helvetica,sans-serif; font-size:48px; text-anchor:middle;" transform="rotate(0, 448.923, 1557.47)" x="448.923" y="1557.47">2</text>
</g>
<g clip-path="url(#clip3201)">
<text style="fill:#000000; fill-opacity:1; font-family:Arial,Helvetica Neue,Helvetica,sans-serif; font-size:48px; text-anchor:middle;" transform="rotate(0, 901.725, 1557.47)" x="901.725" y="1557.47">4</text>
</g>
<g clip-path="url(#clip3201)">
<text style="fill:#000000; fill-opacity:1; font-family:Arial,Helvetica Neue,Helvetica,sans-serif; font-size:48px; text-anchor:middle;" transform="rotate(0, 1354.53, 1557.47)" x="1354.53" y="1557.47">6</text>
</g>
<g clip-path="url(#clip3201)">
<text style="fill:#000000; fill-opacity:1; font-family:Arial,Helvetica Neue,Helvetica,sans-serif; font-size:48px; text-anchor:middle;" transform="rotate(0, 1807.33, 1557.47)" x="1807.33" y="1557.47">8</text>
</g>
<g clip-path="url(#clip3201)">
<text style="fill:#000000; fill-opacity:1; font-family:Arial,Helvetica Neue,Helvetica,sans-serif; font-size:48px; text-anchor:middle;" transform="rotate(0, 2260.13, 1557.47)" x="2260.13" y="1557.47">10</text>
</g>
<g clip-path="url(#clip3201)">
<text style="fill:#000000; fill-opacity:1; font-family:Arial,Helvetica Neue,Helvetica,sans-serif; font-size:48px; text-anchor:end;" transform="rotate(0, 137.394, 1388.77)" x="137.394" y="1388.77">0.1</text>
</g>
<g clip-path="url(#clip3201)">
<text style="fill:#000000; fill-opacity:1; font-family:Arial,Helvetica Neue,Helvetica,sans-serif; font-size:48px; text-anchor:end;" transform="rotate(0, 137.394, 1189.98)" x="137.394" y="1189.98">0.2</text>
</g>
<g clip-path="url(#clip3201)">
<text style="fill:#000000; fill-opacity:1; font-family:Arial,Helvetica Neue,Helvetica,sans-serif; font-size:48px; text-anchor:end;" transform="rotate(0, 137.394, 991.201)" x="137.394" y="991.201">0.3</text>
</g>
<g clip-path="url(#clip3201)">
<text style="fill:#000000; fill-opacity:1; font-family:Arial,Helvetica Neue,Helvetica,sans-serif; font-size:48px; text-anchor:end;" transform="rotate(0, 137.394, 792.417)" x="137.394" y="792.417">0.4</text>
</g>
<g clip-path="url(#clip3201)">
<text style="fill:#000000; fill-opacity:1; font-family:Arial,Helvetica Neue,Helvetica,sans-serif; font-size:48px; text-anchor:end;" transform="rotate(0, 137.394, 593.633)" x="137.394" y="593.633">0.5</text>
</g>
<g clip-path="url(#clip3201)">
<text style="fill:#000000; fill-opacity:1; font-family:Arial,Helvetica Neue,Helvetica,sans-serif; font-size:48px; text-anchor:end;" transform="rotate(0, 137.394, 394.849)" x="137.394" y="394.849">0.6</text>
</g>
<g clip-path="url(#clip3201)">
<text style="fill:#000000; fill-opacity:1; font-family:Arial,Helvetica Neue,Helvetica,sans-serif; font-size:48px; text-anchor:end;" transform="rotate(0, 137.394, 196.065)" x="137.394" y="196.065">0.7</text>
</g>
<g clip-path="url(#clip3201)">
<text style="fill:#000000; fill-opacity:1; font-family:Arial,Helvetica Neue,Helvetica,sans-serif; font-size:84px; text-anchor:middle;" transform="rotate(0, 1241.33, 73.2)" x="1241.33" y="73.2">Two Lines</text>
</g>
<polyline clip-path="url(#clip3203)" style="stroke:#009af9; stroke-width:12; stroke-opacity:1; fill:none" points="
  222.522,851.564 448.923,365.197 675.324,1362.34 901.725,433.312 1128.13,1090.6 1354.53,164.97 1580.93,365.903 1807.33,337.887 2033.73,887.73 2260.13,1360.09 
  
  "/>
<polyline clip-path="url(#clip3203)" style="stroke:#e26f46; stroke-width:12; stroke-opacity:1; fill:none" points="
  222.522,830.097 448.923,630.873 675.324,1408.3 901.725,679.595 1128.13,1379.49 1354.53,444.698 1580.93,1464.49 1807.33,1111.97 2033.73,912.665 2260.13,966.988 
  
  "/>
<polygon clip-path="url(#clip3201)" points="
1878.14,390.944 2249.26,390.944 2249.26,209.504 1878.14,209.504 
  " fill="#ffffff" fill-rule="evenodd" fill-opacity="1"/>
<polyline clip-path="url(#clip3201)" style="stroke:#000000; stroke-width:4; stroke-opacity:1; fill:none" points="
  1878.14,390.944 2249.26,390.944 2249.26,209.504 1878.14,209.504 1878.14,390.944 
  "/>
<polyline clip-path="url(#clip3201)" style="stroke:#009af9; stroke-width:12; stroke-opacity:1; fill:none" points="
  1902.14,269.984 2046.14,269.984 
  "/>
<g clip-path="url(#clip3201)">
<text style="fill:#000000; fill-opacity:1; font-family:Arial,Helvetica Neue,Helvetica,sans-serif; font-size:48px; text-anchor:start;" transform="rotate(0, 2070.14, 287.484)" x="2070.14" y="287.484">Line 1</text>
</g>
<polyline clip-path="url(#clip3201)" style="stroke:#e26f46; stroke-width:12; stroke-opacity:1; fill:none" points="
  1902.14,330.464 2046.14,330.464 
  "/>
<g clip-path="url(#clip3201)">
<text style="fill:#000000; fill-opacity:1; font-family:Arial,Helvetica Neue,Helvetica,sans-serif; font-size:48px; text-anchor:start;" transform="rotate(0, 2070.14, 347.964)" x="2070.14" y="347.964">Line 2</text>
</g>
</svg>
