<?xml version="1.0" encoding="utf-8"?>
<svg xmlns="http://www.w3.org/2000/svg" xmlns:xlink="http://www.w3.org/1999/xlink" width="600" height="400" viewBox="0 0 2400 1600">
<defs>
  <clipPath id="clip8600">
    <rect x="0" y="0" width="2400" height="1600"/>
  </clipPath>
</defs>
<polygon clip-path="url(#clip8600)" points="
0,1600 2400,1600 2400,0 0,0 
  " fill="#ffffff" fill-rule="evenodd" fill-opacity="1"/>
<defs>
  <clipPath id="clip8601">
    <rect x="480" y="0" width="1681" height="1600"/>
  </clipPath>
</defs>
<polygon clip-path="url(#clip8600)" points="
153.898,1487.47 2352.76,1487.47 2352.76,121.675 153.898,121.675 
  " fill="#ffffff" fill-rule="evenodd" fill-opacity="1"/>
<defs>
  <clipPath id="clip8602">
    <rect x="153" y="121" width="2200" height="1367"/>
  </clipPath>
</defs>
<polyline clip-path="url(#clip8602)" style="stroke:#000000; stroke-width:2; stroke-opacity:0.1; fill:none" points="
  446.618,1487.47 446.618,121.675 
  "/>
<polyline clip-path="url(#clip8602)" style="stroke:#000000; stroke-width:2; stroke-opacity:0.1; fill:none" points="
  907.595,1487.47 907.595,121.675 
  "/>
<polyline clip-path="url(#clip8602)" style="stroke:#000000; stroke-width:2; stroke-opacity:0.1; fill:none" points="
  1368.57,1487.47 1368.57,121.675 
  "/>
<polyline clip-path="url(#clip8602)" style="stroke:#000000; stroke-width:2; stroke-opacity:0.1; fill:none" points="
  1829.55,1487.47 1829.55,121.675 
  "/>
<polyline clip-path="url(#clip8602)" style="stroke:#000000; stroke-width:2; stroke-opacity:0.1; fill:none" points="
  2290.52,1487.47 2290.52,121.675 
  "/>
<polyline clip-path="url(#clip8602)" style="stroke:#000000; stroke-width:2; stroke-opacity:0.1; fill:none" points="
  153.898,1452.91 2352.76,1452.91 
  "/>
<polyline clip-path="url(#clip8602)" style="stroke:#000000; stroke-width:2; stroke-opacity:0.1; fill:none" points="
  153.898,1185.86 2352.76,1185.86 
  "/>
<polyline clip-path="url(#clip8602)" style="stroke:#000000; stroke-width:2; stroke-opacity:0.1; fill:none" points="
  153.898,918.81 2352.76,918.81 
  "/>
<polyline clip-path="url(#clip8602)" style="stroke:#000000; stroke-width:2; stroke-opacity:0.1; fill:none" points="
  153.898,651.76 2352.76,651.76 
  "/>
<polyline clip-path="url(#clip8602)" style="stroke:#000000; stroke-width:2; stroke-opacity:0.1; fill:none" points="
  153.898,384.711 2352.76,384.711 
  "/>
<polyline clip-path="url(#clip8600)" style="stroke:#000000; stroke-width:4; stroke-opacity:1; fill:none" points="
  153.898,1487.47 2352.76,1487.47 
  "/>
<polyline clip-path="url(#clip8600)" style="stroke:#000000; stroke-width:4; stroke-opacity:1; fill:none" points="
  153.898,1487.47 153.898,121.675 
  "/>
<polyline clip-path="url(#clip8600)" style="stroke:#000000; stroke-width:4; stroke-opacity:1; fill:none" points="
  446.618,1487.47 446.618,1466.99 
  "/>
<polyline clip-path="url(#clip8600)" style="stroke:#000000; stroke-width:4; stroke-opacity:1; fill:none" points="
  907.595,1487.47 907.595,1466.99 
  "/>
<polyline clip-path="url(#clip8600)" style="stroke:#000000; stroke-width:4; stroke-opacity:1; fill:none" points="
  1368.57,1487.47 1368.57,1466.99 
  "/>
<polyline clip-path="url(#clip8600)" style="stroke:#000000; stroke-width:4; stroke-opacity:1; fill:none" points="
  1829.55,1487.47 1829.55,1466.99 
  "/>
<polyline clip-path="url(#clip8600)" style="stroke:#000000; stroke-width:4; stroke-opacity:1; fill:none" points="
  2290.52,1487.47 2290.52,1466.99 
  "/>
<polyline clip-path="url(#clip8600)" style="stroke:#000000; stroke-width:4; stroke-opacity:1; fill:none" points="
  153.898,1452.91 186.881,1452.91 
  "/>
<polyline clip-path="url(#clip8600)" style="stroke:#000000; stroke-width:4; stroke-opacity:1; fill:none" points="
  153.898,1185.86 186.881,1185.86 
  "/>
<polyline clip-path="url(#clip8600)" style="stroke:#000000; stroke-width:4; stroke-opacity:1; fill:none" points="
  153.898,918.81 186.881,918.81 
  "/>
<polyline clip-path="url(#clip8600)" style="stroke:#000000; stroke-width:4; stroke-opacity:1; fill:none" points="
  153.898,651.76 186.881,651.76 
  "/>
<polyline clip-path="url(#clip8600)" style="stroke:#000000; stroke-width:4; stroke-opacity:1; fill:none" points="
  153.898,384.711 186.881,384.711 
  "/>
<g clip-path="url(#clip8600)">
<text style="fill:#000000; fill-opacity:1; font-family:Arial,Helvetica Neue,Helvetica,sans-serif; font-size:48px; text-anchor:middle;" transform="rotate(0, 446.618, 1541.47)" x="446.618" y="1541.47">2</text>
</g>
<g clip-path="url(#clip8600)">
<text style="fill:#000000; fill-opacity:1; font-family:Arial,Helvetica Neue,Helvetica,sans-serif; font-size:48px; text-anchor:middle;" transform="rotate(0, 907.595, 1541.47)" x="907.595" y="1541.47">4</text>
</g>
<g clip-path="url(#clip8600)">
<text style="fill:#000000; fill-opacity:1; font-family:Arial,Helvetica Neue,Helvetica,sans-serif; font-size:48px; text-anchor:middle;" transform="rotate(0, 1368.57, 1541.47)" x="1368.57" y="1541.47">6</text>
</g>
<g clip-path="url(#clip8600)">
<text style="fill:#000000; fill-opacity:1; font-family:Arial,Helvetica Neue,Helvetica,sans-serif; font-size:48px; text-anchor:middle;" transform="rotate(0, 1829.55, 1541.47)" x="1829.55" y="1541.47">8</text>
</g>
<g clip-path="url(#clip8600)">
<text style="fill:#000000; fill-opacity:1; font-family:Arial,Helvetica Neue,Helvetica,sans-serif; font-size:48px; text-anchor:middle;" transform="rotate(0, 2290.52, 1541.47)" x="2290.52" y="1541.47">10</text>
</g>
<g clip-path="url(#clip8600)">
<text style="fill:#000000; fill-opacity:1; font-family:Arial,Helvetica Neue,Helvetica,sans-serif; font-size:48px; text-anchor:end;" transform="rotate(0, 129.898, 1470.41)" x="129.898" y="1470.41">0.0</text>
</g>
<g clip-path="url(#clip8600)">
<text style="fill:#000000; fill-opacity:1; font-family:Arial,Helvetica Neue,Helvetica,sans-serif; font-size:48px; text-anchor:end;" transform="rotate(0, 129.898, 1203.36)" x="129.898" y="1203.36">0.2</text>
</g>
<g clip-path="url(#clip8600)">
<text style="fill:#000000; fill-opacity:1; font-family:Arial,Helvetica Neue,Helvetica,sans-serif; font-size:48px; text-anchor:end;" transform="rotate(0, 129.898, 936.31)" x="129.898" y="936.31">0.4</text>
</g>
<g clip-path="url(#clip8600)">
<text style="fill:#000000; fill-opacity:1; font-family:Arial,Helvetica Neue,Helvetica,sans-serif; font-size:48px; text-anchor:end;" transform="rotate(0, 129.898, 669.26)" x="129.898" y="669.26">0.6</text>
</g>
<g clip-path="url(#clip8600)">
<text style="fill:#000000; fill-opacity:1; font-family:Arial,Helvetica Neue,Helvetica,sans-serif; font-size:48px; text-anchor:end;" transform="rotate(0, 129.898, 402.211)" x="129.898" y="402.211">0.8</text>
</g>
<g clip-path="url(#clip8600)">
<text style="fill:#000000; fill-opacity:1; font-family:Arial,Helvetica Neue,Helvetica,sans-serif; font-size:84px; text-anchor:middle;" transform="rotate(0, 1253.33, 73.2)" x="1253.33" y="73.2">Two Lines</text>
</g>
<polyline clip-path="url(#clip8602)" style="stroke:#009af9; stroke-width:12; stroke-opacity:1; fill:none" points="
  216.13,334.742 446.618,1448.82 677.106,230.019 907.595,1236.41 1138.08,998.959 1368.57,836.506 1599.06,944.66 1829.55,1354.93 2060.04,585.933 2290.52,160.33 
  
  "/>
<polyline clip-path="url(#clip8602)" style="stroke:#e26f46; stroke-width:12; stroke-opacity:1; fill:none" points="
  216.13,795.573 446.618,385.081 677.106,1090.98 907.595,370.179 1138.08,701.675 1368.57,1158.66 1599.06,1120.98 1829.55,228.769 2060.04,1022.39 2290.52,891.806 
  
  "/>
<polygon clip-path="url(#clip8600)" points="
1909.64,386.635 2280.76,386.635 2280.76,205.195 1909.64,205.195 
  " fill="#ffffff" fill-rule="evenodd" fill-opacity="1"/>
<polyline clip-path="url(#clip8600)" style="stroke:#000000; stroke-width:4; stroke-opacity:1; fill:none" points="
  1909.64,386.635 2280.76,386.635 2280.76,205.195 1909.64,205.195 1909.64,386.635 
  "/>
<polyline clip-path="url(#clip8600)" style="stroke:#009af9; stroke-width:12; stroke-opacity:1; fill:none" points="
  1933.64,265.675 2077.64,265.675 
  "/>
<g clip-path="url(#clip8600)">
<text style="fill:#000000; fill-opacity:1; font-family:Arial,Helvetica Neue,Helvetica,sans-serif; font-size:48px; text-anchor:start;" transform="rotate(0, 2101.64, 283.175)" x="2101.64" y="283.175">Line 1</text>
</g>
<polyline clip-path="url(#clip8600)" style="stroke:#e26f46; stroke-width:12; stroke-opacity:1; fill:none" points="
  1933.64,326.155 2077.64,326.155 
  "/>
<g clip-path="url(#clip8600)">
<text style="fill:#000000; fill-opacity:1; font-family:Arial,Helvetica Neue,Helvetica,sans-serif; font-size:48px; text-anchor:start;" transform="rotate(0, 2101.64, 343.655)" x="2101.64" y="343.655">Line 2</text>
</g>
</svg>
