<?xml version="1.0" encoding="utf-8"?>
<svg xmlns="http://www.w3.org/2000/svg" xmlns:xlink="http://www.w3.org/1999/xlink" width="600" height="400" viewBox="0 0 2400 1600">
<defs>
  <clipPath id="clip7600">
    <rect x="0" y="0" width="2000" height="2000"/>
  </clipPath>
</defs>
<defs>
  <clipPath id="clip7601">
    <rect x="0" y="0" width="2400" height="1600"/>
  </clipPath>
</defs>
<polygon clip-path="url(#clip7601)" points="
0,1600 2400,1600 2400,0 0,0 
  " fill="#ffffff" fill-rule="evenodd" fill-opacity="1"/>
<defs>
  <clipPath id="clip7602">
    <rect x="480" y="0" width="1681" height="1600"/>
  </clipPath>
</defs>
<polygon clip-path="url(#clip7601)" points="
188.156,1503.47 2321.26,1503.47 2321.26,125.984 188.156,125.984 
  " fill="#ffffff" fill-rule="evenodd" fill-opacity="1"/>
<defs>
  <clipPath id="clip7603">
    <rect x="188" y="125" width="2134" height="1378"/>
  </clipPath>
</defs>
<polyline clip-path="url(#clip7603)" style="stroke:#000000; stroke-width:2; stroke-opacity:0.1; fill:none" points="
  472.123,1503.47 472.123,125.984 
  "/>
<polyline clip-path="url(#clip7603)" style="stroke:#000000; stroke-width:2; stroke-opacity:0.1; fill:none" points="
  919.314,1503.47 919.314,125.984 
  "/>
<polyline clip-path="url(#clip7603)" style="stroke:#000000; stroke-width:2; stroke-opacity:0.1; fill:none" points="
  1366.51,1503.47 1366.51,125.984 
  "/>
<polyline clip-path="url(#clip7603)" style="stroke:#000000; stroke-width:2; stroke-opacity:0.1; fill:none" points="
  1813.7,1503.47 1813.7,125.984 
  "/>
<polyline clip-path="url(#clip7603)" style="stroke:#000000; stroke-width:2; stroke-opacity:0.1; fill:none" points="
  2260.89,1503.47 2260.89,125.984 
  "/>
<polyline clip-path="url(#clip7603)" style="stroke:#000000; stroke-width:2; stroke-opacity:0.1; fill:none" points="
  188.156,1483.37 2321.26,1483.37 
  "/>
<polyline clip-path="url(#clip7603)" style="stroke:#000000; stroke-width:2; stroke-opacity:0.1; fill:none" points="
  188.156,1145.8 2321.26,1145.8 
  "/>
<polyline clip-path="url(#clip7603)" style="stroke:#000000; stroke-width:2; stroke-opacity:0.1; fill:none" points="
  188.156,808.22 2321.26,808.22 
  "/>
<polyline clip-path="url(#clip7603)" style="stroke:#000000; stroke-width:2; stroke-opacity:0.1; fill:none" points="
  188.156,470.646 2321.26,470.646 
  "/>
<polyline clip-path="url(#clip7603)" style="stroke:#000000; stroke-width:2; stroke-opacity:0.1; fill:none" points="
  188.156,133.071 2321.26,133.071 
  "/>
<polyline clip-path="url(#clip7601)" style="stroke:#000000; stroke-width:4; stroke-opacity:1; fill:none" points="
  188.156,1503.47 2321.26,1503.47 
  "/>
<polyline clip-path="url(#clip7601)" style="stroke:#000000; stroke-width:4; stroke-opacity:1; fill:none" points="
  188.156,1503.47 188.156,125.984 
  "/>
<polyline clip-path="url(#clip7601)" style="stroke:#000000; stroke-width:4; stroke-opacity:1; fill:none" points="
  472.123,1503.47 472.123,1482.81 
  "/>
<polyline clip-path="url(#clip7601)" style="stroke:#000000; stroke-width:4; stroke-opacity:1; fill:none" points="
  919.314,1503.47 919.314,1482.81 
  "/>
<polyline clip-path="url(#clip7601)" style="stroke:#000000; stroke-width:4; stroke-opacity:1; fill:none" points="
  1366.51,1503.47 1366.51,1482.81 
  "/>
<polyline clip-path="url(#clip7601)" style="stroke:#000000; stroke-width:4; stroke-opacity:1; fill:none" points="
  1813.7,1503.47 1813.7,1482.81 
  "/>
<polyline clip-path="url(#clip7601)" style="stroke:#000000; stroke-width:4; stroke-opacity:1; fill:none" points="
  2260.89,1503.47 2260.89,1482.81 
  "/>
<polyline clip-path="url(#clip7601)" style="stroke:#000000; stroke-width:4; stroke-opacity:1; fill:none" points="
  188.156,1483.37 220.153,1483.37 
  "/>
<polyline clip-path="url(#clip7601)" style="stroke:#000000; stroke-width:4; stroke-opacity:1; fill:none" points="
  188.156,1145.8 220.153,1145.8 
  "/>
<polyline clip-path="url(#clip7601)" style="stroke:#000000; stroke-width:4; stroke-opacity:1; fill:none" points="
  188.156,808.22 220.153,808.22 
  "/>
<polyline clip-path="url(#clip7601)" style="stroke:#000000; stroke-width:4; stroke-opacity:1; fill:none" points="
  188.156,470.646 220.153,470.646 
  "/>
<polyline clip-path="url(#clip7601)" style="stroke:#000000; stroke-width:4; stroke-opacity:1; fill:none" points="
  188.156,133.071 220.153,133.071 
  "/>
<g clip-path="url(#clip7601)">
<text style="fill:#000000; fill-opacity:1; font-family:Arial,Helvetica Neue,Helvetica,sans-serif; font-size:48px; text-anchor:middle;" transform="rotate(0, 472.123, 1557.47)" x="472.123" y="1557.47">2</text>
</g>
<g clip-path="url(#clip7601)">
<text style="fill:#000000; fill-opacity:1; font-family:Arial,Helvetica Neue,Helvetica,sans-serif; font-size:48px; text-anchor:middle;" transform="rotate(0, 919.314, 1557.47)" x="919.314" y="1557.47">4</text>
</g>
<g clip-path="url(#clip7601)">
<text style="fill:#000000; fill-opacity:1; font-family:Arial,Helvetica Neue,Helvetica,sans-serif; font-size:48px; text-anchor:middle;" transform="rotate(0, 1366.51, 1557.47)" x="1366.51" y="1557.47">6</text>
</g>
<g clip-path="url(#clip7601)">
<text style="fill:#000000; fill-opacity:1; font-family:Arial,Helvetica Neue,Helvetica,sans-serif; font-size:48px; text-anchor:middle;" transform="rotate(0, 1813.7, 1557.47)" x="1813.7" y="1557.47">8</text>
</g>
<g clip-path="url(#clip7601)">
<text style="fill:#000000; fill-opacity:1; font-family:Arial,Helvetica Neue,Helvetica,sans-serif; font-size:48px; text-anchor:middle;" transform="rotate(0, 2260.89, 1557.47)" x="2260.89" y="1557.47">10</text>
</g>
<g clip-path="url(#clip7601)">
<text style="fill:#000000; fill-opacity:1; font-family:Arial,Helvetica Neue,Helvetica,sans-serif; font-size:48px; text-anchor:end;" transform="rotate(0, 164.156, 1500.87)" x="164.156" y="1500.87">0.00</text>
</g>
<g clip-path="url(#clip7601)">
<text style="fill:#000000; fill-opacity:1; font-family:Arial,Helvetica Neue,Helvetica,sans-serif; font-size:48px; text-anchor:end;" transform="rotate(0, 164.156, 1163.3)" x="164.156" y="1163.3">0.25</text>
</g>
<g clip-path="url(#clip7601)">
<text style="fill:#000000; fill-opacity:1; font-family:Arial,Helvetica Neue,Helvetica,sans-serif; font-size:48px; text-anchor:end;" transform="rotate(0, 164.156, 825.72)" x="164.156" y="825.72">0.50</text>
</g>
<g clip-path="url(#clip7601)">
<text style="fill:#000000; fill-opacity:1; font-family:Arial,Helvetica Neue,Helvetica,sans-serif; font-size:48px; text-anchor:end;" transform="rotate(0, 164.156, 488.146)" x="164.156" y="488.146">0.75</text>
</g>
<g clip-path="url(#clip7601)">
<text style="fill:#000000; fill-opacity:1; font-family:Arial,Helvetica Neue,Helvetica,sans-serif; font-size:48px; text-anchor:end;" transform="rotate(0, 164.156, 150.571)" x="164.156" y="150.571">1.00</text>
</g>
<g clip-path="url(#clip7601)">
<text style="fill:#000000; fill-opacity:1; font-family:Arial,Helvetica Neue,Helvetica,sans-serif; font-size:84px; text-anchor:middle;" transform="rotate(0, 1254.71, 73.2)" x="1254.71" y="73.2">Two Lines</text>
</g>
<polyline clip-path="url(#clip7603)" style="stroke:#009af9; stroke-width:12; stroke-opacity:1; fill:none" points="
  248.527,885.827 472.123,927.671 695.719,714.911 919.314,863.789 1142.91,1222.27 1366.51,940.658 1590.1,1251.36 1813.7,1308.75 2037.29,1221.01 2260.89,1009.42 
  
  "/>
<polyline clip-path="url(#clip7603)" style="stroke:#e26f46; stroke-width:12; stroke-opacity:1; fill:none" points="
  248.527,164.97 472.123,428.679 695.719,1464.49 919.314,297.567 1142.91,240.645 1366.51,1211.33 1590.1,1129.29 1813.7,1019.7 2037.29,193.924 2260.89,1141.35 
  
  "/>
<polygon clip-path="url(#clip7601)" points="
1878.14,390.944 2249.26,390.944 2249.26,209.504 1878.14,209.504 
  " fill="#ffffff" fill-rule="evenodd" fill-opacity="1"/>
<polyline clip-path="url(#clip7601)" style="stroke:#000000; stroke-width:4; stroke-opacity:1; fill:none" points="
  1878.14,390.944 2249.26,390.944 2249.26,209.504 1878.14,209.504 1878.14,390.944 
  "/>
<polyline clip-path="url(#clip7601)" style="stroke:#009af9; stroke-width:12; stroke-opacity:1; fill:none" points="
  1902.14,269.984 2046.14,269.984 
  "/>
<g clip-path="url(#clip7601)">
<text style="fill:#000000; fill-opacity:1; font-family:Arial,Helvetica Neue,Helvetica,sans-serif; font-size:48px; text-anchor:start;" transform="rotate(0, 2070.14, 287.484)" x="2070.14" y="287.484">Line 1</text>
</g>
<polyline clip-path="url(#clip7601)" style="stroke:#e26f46; stroke-width:12; stroke-opacity:1; fill:none" points="
  1902.14,330.464 2046.14,330.464 
  "/>
<g clip-path="url(#clip7601)">
<text style="fill:#000000; fill-opacity:1; font-family:Arial,Helvetica Neue,Helvetica,sans-serif; font-size:48px; text-anchor:start;" transform="rotate(0, 2070.14, 347.964)" x="2070.14" y="347.964">Line 2</text>
</g>
</svg>
