<?xml version="1.0" encoding="utf-8"?>
<svg xmlns="http://www.w3.org/2000/svg" xmlns:xlink="http://www.w3.org/1999/xlink" width="600" height="400" viewBox="0 0 2400 1600">
<defs>
  <clipPath id="clip1800">
    <rect x="0" y="0" width="2000" height="2000"/>
  </clipPath>
</defs>
<defs>
  <clipPath id="clip1801">
    <rect x="0" y="0" width="2400" height="1600"/>
  </clipPath>
</defs>
<polygon clip-path="url(#clip1801)" points="
0,1600 2400,1600 2400,0 0,0 
  " fill="#ffffff" fill-rule="evenodd" fill-opacity="1"/>
<defs>
  <clipPath id="clip1802">
    <rect x="480" y="0" width="1681" height="1600"/>
  </clipPath>
</defs>
<polygon clip-path="url(#clip1801)" points="
188.156,1503.47 2321.26,1503.47 2321.26,125.984 188.156,125.984 
  " fill="#ffffff" fill-rule="evenodd" fill-opacity="1"/>
<defs>
  <clipPath id="clip1803">
    <rect x="188" y="125" width="2134" height="1378"/>
  </clipPath>
</defs>
<polyline clip-path="url(#clip1803)" style="stroke:#000000; stroke-width:2; stroke-opacity:0.1; fill:none" points="
  472.123,1503.47 472.123,125.984 
  "/>
<polyline clip-path="url(#clip1803)" style="stroke:#000000; stroke-width:2; stroke-opacity:0.1; fill:none" points="
  919.314,1503.47 919.314,125.984 
  "/>
<polyline clip-path="url(#clip1803)" style="stroke:#000000; stroke-width:2; stroke-opacity:0.1; fill:none" points="
  1366.51,1503.47 1366.51,125.984 
  "/>
<polyline clip-path="url(#clip1803)" style="stroke:#000000; stroke-width:2; stroke-opacity:0.1; fill:none" points="
  1813.7,1503.47 1813.7,125.984 
  "/>
<polyline clip-path="url(#clip1803)" style="stroke:#000000; stroke-width:2; stroke-opacity:0.1; fill:none" points="
  2260.89,1503.47 2260.89,125.984 
  "/>
<polyline clip-path="url(#clip1803)" style="stroke:#000000; stroke-width:2; stroke-opacity:0.1; fill:none" points="
  188.156,1489.45 2321.26,1489.45 
  "/>
<polyline clip-path="url(#clip1803)" style="stroke:#000000; stroke-width:2; stroke-opacity:0.1; fill:none" points="
  188.156,1153.14 2321.26,1153.14 
  "/>
<polyline clip-path="url(#clip1803)" style="stroke:#000000; stroke-width:2; stroke-opacity:0.1; fill:none" points="
  188.156,816.835 2321.26,816.835 
  "/>
<polyline clip-path="url(#clip1803)" style="stroke:#000000; stroke-width:2; stroke-opacity:0.1; fill:none" points="
  188.156,480.526 2321.26,480.526 
  "/>
<polyline clip-path="url(#clip1803)" style="stroke:#000000; stroke-width:2; stroke-opacity:0.1; fill:none" points="
  188.156,144.217 2321.26,144.217 
  "/>
<polyline clip-path="url(#clip1801)" style="stroke:#000000; stroke-width:4; stroke-opacity:1; fill:none" points="
  188.156,1503.47 2321.26,1503.47 
  "/>
<polyline clip-path="url(#clip1801)" style="stroke:#000000; stroke-width:4; stroke-opacity:1; fill:none" points="
  188.156,1503.47 188.156,125.984 
  "/>
<polyline clip-path="url(#clip1801)" style="stroke:#000000; stroke-width:4; stroke-opacity:1; fill:none" points="
  472.123,1503.47 472.123,1482.81 
  "/>
<polyline clip-path="url(#clip1801)" style="stroke:#000000; stroke-width:4; stroke-opacity:1; fill:none" points="
  919.314,1503.47 919.314,1482.81 
  "/>
<polyline clip-path="url(#clip1801)" style="stroke:#000000; stroke-width:4; stroke-opacity:1; fill:none" points="
  1366.51,1503.47 1366.51,1482.81 
  "/>
<polyline clip-path="url(#clip1801)" style="stroke:#000000; stroke-width:4; stroke-opacity:1; fill:none" points="
  1813.7,1503.47 1813.7,1482.81 
  "/>
<polyline clip-path="url(#clip1801)" style="stroke:#000000; stroke-width:4; stroke-opacity:1; fill:none" points="
  2260.89,1503.47 2260.89,1482.81 
  "/>
<polyline clip-path="url(#clip1801)" style="stroke:#000000; stroke-width:4; stroke-opacity:1; fill:none" points="
  188.156,1489.45 220.153,1489.45 
  "/>
<polyline clip-path="url(#clip1801)" style="stroke:#000000; stroke-width:4; stroke-opacity:1; fill:none" points="
  188.156,1153.14 220.153,1153.14 
  "/>
<polyline clip-path="url(#clip1801)" style="stroke:#000000; stroke-width:4; stroke-opacity:1; fill:none" points="
  188.156,816.835 220.153,816.835 
  "/>
<polyline clip-path="url(#clip1801)" style="stroke:#000000; stroke-width:4; stroke-opacity:1; fill:none" points="
  188.156,480.526 220.153,480.526 
  "/>
<polyline clip-path="url(#clip1801)" style="stroke:#000000; stroke-width:4; stroke-opacity:1; fill:none" points="
  188.156,144.217 220.153,144.217 
  "/>
<g clip-path="url(#clip1801)">
<text style="fill:#000000; fill-opacity:1; font-family:Arial,Helvetica Neue,Helvetica,sans-serif; font-size:48px; text-anchor:middle;" transform="rotate(0, 472.123, 1557.47)" x="472.123" y="1557.47">2</text>
</g>
<g clip-path="url(#clip1801)">
<text style="fill:#000000; fill-opacity:1; font-family:Arial,Helvetica Neue,Helvetica,sans-serif; font-size:48px; text-anchor:middle;" transform="rotate(0, 919.314, 1557.47)" x="919.314" y="1557.47">4</text>
</g>
<g clip-path="url(#clip1801)">
<text style="fill:#000000; fill-opacity:1; font-family:Arial,Helvetica Neue,Helvetica,sans-serif; font-size:48px; text-anchor:middle;" transform="rotate(0, 1366.51, 1557.47)" x="1366.51" y="1557.47">6</text>
</g>
<g clip-path="url(#clip1801)">
<text style="fill:#000000; fill-opacity:1; font-family:Arial,Helvetica Neue,Helvetica,sans-serif; font-size:48px; text-anchor:middle;" transform="rotate(0, 1813.7, 1557.47)" x="1813.7" y="1557.47">8</text>
</g>
<g clip-path="url(#clip1801)">
<text style="fill:#000000; fill-opacity:1; font-family:Arial,Helvetica Neue,Helvetica,sans-serif; font-size:48px; text-anchor:middle;" transform="rotate(0, 2260.89, 1557.47)" x="2260.89" y="1557.47">10</text>
</g>
<g clip-path="url(#clip1801)">
<text style="fill:#000000; fill-opacity:1; font-family:Arial,Helvetica Neue,Helvetica,sans-serif; font-size:48px; text-anchor:end;" transform="rotate(0, 164.156, 1506.95)" x="164.156" y="1506.95">0.00</text>
</g>
<g clip-path="url(#clip1801)">
<text style="fill:#000000; fill-opacity:1; font-family:Arial,Helvetica Neue,Helvetica,sans-serif; font-size:48px; text-anchor:end;" transform="rotate(0, 164.156, 1170.64)" x="164.156" y="1170.64">0.25</text>
</g>
<g clip-path="url(#clip1801)">
<text style="fill:#000000; fill-opacity:1; font-family:Arial,Helvetica Neue,Helvetica,sans-serif; font-size:48px; text-anchor:end;" transform="rotate(0, 164.156, 834.335)" x="164.156" y="834.335">0.50</text>
</g>
<g clip-path="url(#clip1801)">
<text style="fill:#000000; fill-opacity:1; font-family:Arial,Helvetica Neue,Helvetica,sans-serif; font-size:48px; text-anchor:end;" transform="rotate(0, 164.156, 498.026)" x="164.156" y="498.026">0.75</text>
</g>
<g clip-path="url(#clip1801)">
<text style="fill:#000000; fill-opacity:1; font-family:Arial,Helvetica Neue,Helvetica,sans-serif; font-size:48px; text-anchor:end;" transform="rotate(0, 164.156, 161.717)" x="164.156" y="161.717">1.00</text>
</g>
<g clip-path="url(#clip1801)">
<text style="fill:#000000; fill-opacity:1; font-family:Arial,Helvetica Neue,Helvetica,sans-serif; font-size:84px; text-anchor:middle;" transform="rotate(0, 1254.71, 73.2)" x="1254.71" y="73.2">Two Lines</text>
</g>
<polyline clip-path="url(#clip1803)" style="stroke:#009af9; stroke-width:12; stroke-opacity:1; fill:none" points="
  248.527,293.31 472.123,1165.25 695.719,1061.01 919.314,215.079 1142.91,581.217 1366.51,164.97 1590.1,1386.05 1813.7,1391.28 2037.29,1298.92 2260.89,1272.63 
  
  "/>
<polyline clip-path="url(#clip1803)" style="stroke:#e26f46; stroke-width:12; stroke-opacity:1; fill:none" points="
  248.527,354.145 472.123,179.89 695.719,1464.49 919.314,1391.49 1142.91,709.581 1366.51,1063.18 1590.1,924.336 1813.7,1302.38 2037.29,889.056 2260.89,275.903 
  
  "/>
<polygon clip-path="url(#clip1801)" points="
1878.14,390.944 2249.26,390.944 2249.26,209.504 1878.14,209.504 
  " fill="#ffffff" fill-rule="evenodd" fill-opacity="1"/>
<polyline clip-path="url(#clip1801)" style="stroke:#000000; stroke-width:4; stroke-opacity:1; fill:none" points="
  1878.14,390.944 2249.26,390.944 2249.26,209.504 1878.14,209.504 1878.14,390.944 
  "/>
<polyline clip-path="url(#clip1801)" style="stroke:#009af9; stroke-width:12; stroke-opacity:1; fill:none" points="
  1902.14,269.984 2046.14,269.984 
  "/>
<g clip-path="url(#clip1801)">
<text style="fill:#000000; fill-opacity:1; font-family:Arial,Helvetica Neue,Helvetica,sans-serif; font-size:48px; text-anchor:start;" transform="rotate(0, 2070.14, 287.484)" x="2070.14" y="287.484">Line 1</text>
</g>
<polyline clip-path="url(#clip1801)" style="stroke:#e26f46; stroke-width:12; stroke-opacity:1; fill:none" points="
  1902.14,330.464 2046.14,330.464 
  "/>
<g clip-path="url(#clip1801)">
<text style="fill:#000000; fill-opacity:1; font-family:Arial,Helvetica Neue,Helvetica,sans-serif; font-size:48px; text-anchor:start;" transform="rotate(0, 2070.14, 347.964)" x="2070.14" y="347.964">Line 2</text>
</g>
</svg>
